# xmcd
#
# Track frame offsets: 
#        150
#        20852
#        40735
#        60975
#        90379
#        110122
#        133324
#        156565
#        202652
#        225295
#
# Disc length: 3305 seconds
#
# Revision: 1
# Processed by: cddbd v1.5.2PL0 Copyright (c) Steve Scherf et al.
# Submitted via: ExactAudioCopyFreeDBPlugin 1.0
#
DISCID=7e0ce70a
DTITLE=Cẩm Ly and Quốc Đại - Anh về miền Tây Mình Ơi
DYEAR=2007
DGENRE=Vietnamese
TTITLE0=Noel một mình
TTITLE1=Bài thánh ca buồn
TTITLE2=Hai mùa Noel
TTITLE3=Về miền Tây
TTITLE4=Bằng lòng đi em
TTITLE5=Mình ơi
TTITLE6=Tụi nó
TTITLE7=Quán gấm đầu làng
TTITLE8=Thương hoài lời ru
TTITLE9=Hành trình trên đất phù sa
EXTD=
EXTT0=
EXTT1=
EXTT2=
EXTT3=
EXTT4=
EXTT5=
EXTT6=
EXTT7=
EXTT8=
EXTT9=
PLAYORDER=
